<?xml version="1.0" standalone="no"?>
<!DOCTYPE svg PUBLIC "-//W3C//DTD SVG 20010904//EN"
 "http://www.w3.org/TR/2001/REC-SVG-20010904/DTD/svg10.dtd">
<svg version="1.0" xmlns="http://www.w3.org/2000/svg"
 width="406.000000pt" height="225.000000pt" viewBox="0 0 406.000000 225.000000"
 preserveAspectRatio="xMidYMid meet">

<g transform="translate(0.000000,225.000000) scale(0.100000,-0.100000)"
fill="#000000" stroke="none">
<path d="M1617 2093 c-4 -3 -7 -40 -7 -80 l0 -74 33 3 c32 3 32 4 35 60 2 32
-2 67 -8 78 -10 19 -40 27 -53 13z"/>
<path d="M1531 2046 c-7 -8 -11 -34 -9 -58 3 -41 5 -43 36 -46 l33 -3 -3 58
c-3 50 -6 58 -24 61 -11 2 -26 -4 -33 -12z"/>
<path d="M1701 2046 c-7 -8 -11 -34 -9 -58 3 -41 5 -43 36 -46 l33 -3 -3 58
c-3 50 -6 58 -24 61 -11 2 -26 -4 -33 -12z"/>
<path d="M1792 2018 c-7 -7 -12 -27 -12 -46 0 -32 2 -33 33 -30 26 2 33 8 35
29 2 15 -4 34 -13 43 -20 19 -27 20 -43 4z"/>
<path d="M1420 1809 l0 -110 38 3 c36 3 37 4 40 48 4 54 16 70 52 70 38 0 60
-29 60 -78 l0 -42 169 0 170 0 3 33 c2 17 2 67 0 110 l-4 77 -264 0 -264 0 0
-111z m500 1 l0 -80 -139 0 -138 0 -6 42 c-7 51 -35 78 -82 78 -45 0 -77 -29
-91 -82 -12 -43 -12 -42 -13 40 l-1 82 235 0 235 0 0 -80z"/>
<path d="M1665 1854 c-14 -11 -16 -18 -7 -21 6 -3 12 -18 12 -34 0 -19 5 -29
15 -29 11 0 15 12 15 50 0 54 -4 58 -35 34z"/>
<path d="M1727 1863 c-15 -14 -7 -82 11 -92 38 -21 66 30 46 83 -6 16 -45 22
-57 9z m41 -45 c-2 -18 -7 -33 -13 -33 -5 0 -11 15 -13 33 -3 24 1 32 13 32
12 0 16 -8 13 -32z"/>
<path d="M1817 1863 c-4 -3 -7 -23 -7 -44 0 -43 23 -64 53 -48 20 12 23 69 5
87 -13 13 -41 16 -51 5z m41 -45 c-2 -18 -7 -33 -13 -33 -5 0 -11 15 -13 33
-3 24 1 32 13 32 12 0 16 -8 13 -32z"/>
<path d="M1533 1793 c-16 -6 -18 -185 -3 -214 19 -34 64 -49 152 -49 103 0
141 19 159 79 20 69 16 71 -126 71 l-125 0 0 48 c0 61 -18 81 -57 65z"/>
<path d="M3410 1075 l0 -355 110 0 110 0 0 355 0 355 -110 0 -110 0 0 -355z"/>
<path d="M90 1394 c0 -3 56 -100 125 -214 l125 -208 0 -126 0 -126 115 0 115
0 0 127 0 127 122 205 c66 113 123 209 125 214 2 4 -45 7 -105 7 l-109 0 -68
-116 c-42 -72 -71 -112 -77 -106 -5 5 -37 56 -71 113 l-62 104 -117 3 c-65 1
-118 0 -118 -4z"/>
<path d="M977 1250 c-80 -21 -154 -76 -190 -144 -17 -32 -22 -58 -22 -121 0
-69 4 -86 27 -125 14 -25 37 -55 50 -67 110 -101 336 -101 446 0 13 12 36 42
50 67 23 39 27 56 27 125 0 62 -5 89 -22 120 -49 92 -138 144 -256 150 -40 3
-89 0 -110 -5z m145 -190 c28 -28 30 -35 26 -81 -6 -64 -33 -93 -84 -93 -81 0
-116 113 -55 175 39 38 74 38 113 -1z"/>
<path d="M1621 1244 c-178 -48 -259 -227 -173 -387 56 -105 181 -157 330 -136
76 11 125 35 174 86 50 52 68 99 68 182 0 128 -75 222 -205 256 -72 18 -123
18 -194 -1z m153 -179 c48 -45 33 -151 -26 -176 -46 -19 -94 8 -108 61 -28
104 62 182 134 115z"/>
<path d="M2388 1246 c-21 -8 -49 -21 -63 -30 -24 -16 -25 -16 -25 9 l0 25
-100 0 -100 0 0 -265 0 -265 104 0 105 0 3 155 c3 143 5 156 25 176 26 27 77
29 101 5 14 -14 18 -42 20 -176 l3 -160 111 0 111 0 -5 188 c-4 161 -7 194
-25 233 -43 96 -161 142 -265 105z"/>
<path d="M2957 1246 c-140 -39 -227 -177 -197 -311 32 -142 139 -217 310 -216
97 0 137 10 192 46 45 30 43 37 -24 103 l-44 43 -48 -22 c-35 -15 -58 -19 -85
-14 -45 8 -81 31 -81 50 0 13 28 15 181 15 l182 0 -5 69 c-8 109 -62 184 -162
226 -53 23 -160 28 -219 11z m138 -142 c8 -4 22 -19 31 -35 l15 -29 -86 0
c-92 0 -100 6 -60 45 24 25 65 32 100 19z"/>
<path d="M2877 593 c-13 -12 -7 -23 13 -23 11 0 20 7 20 15 0 15 -21 21 -33 8z"/>
<path d="M3040 565 c0 -22 -3 -24 -29 -19 -21 5 -34 1 -50 -15 -46 -46 -11
-101 64 -99 l45 1 0 78 c0 64 -3 79 -15 79 -9 0 -15 -9 -15 -25z m-6 -60 c8
-23 -4 -45 -25 -45 -11 0 -22 7 -25 15 -9 23 3 45 25 45 10 0 21 -7 25 -15z"/>
<path d="M1553 555 c-16 -17 -17 -35 -3 -35 6 0 10 -15 10 -33 0 -39 15 -57
47 -57 28 0 31 26 3 33 -24 6 -29 57 -5 57 8 0 15 7 15 15 0 8 -7 15 -15 15
-8 0 -15 5 -15 10 0 15 -23 12 -37 -5z"/>
<path d="M1973 555 c-15 -17 -17 -35 -4 -35 6 0 11 -19 13 -42 3 -39 6 -43 31
-46 19 -2 27 1 27 12 0 9 -7 16 -15 16 -10 0 -15 10 -15 30 0 20 5 30 15 30 8
0 15 7 15 15 0 8 -7 15 -15 15 -8 0 -15 5 -15 10 0 15 -23 12 -37 -5z"/>
<path d="M2293 555 c-16 -17 -17 -35 -3 -35 6 0 10 -15 10 -33 0 -37 15 -57
41 -57 27 0 34 21 10 27 -26 7 -31 63 -6 63 8 0 15 7 15 15 0 8 -7 15 -15 15
-8 0 -15 5 -15 10 0 15 -23 12 -37 -5z"/>
<path d="M3807 556 c-7 -18 2 -84 15 -108 11 -22 58 -24 58 -3 0 8 -7 15 -15
15 -10 0 -15 10 -15 30 0 20 5 30 15 30 8 0 15 7 15 15 0 8 -7 15 -15 15 -8 0
-15 5 -15 10 0 16 -37 12 -43 -4z"/>
<path d="M107 532 c-47 -52 9 -122 77 -96 28 11 17 24 -18 24 -19 0 -38 5 -41
10 -4 6 12 10 39 10 52 0 60 16 26 50 -25 25 -62 26 -83 2z m73 -27 c0 -3 -14
-5 -31 -5 -27 0 -30 2 -19 15 9 11 17 12 31 4 10 -5 19 -12 19 -14z"/>
<path d="M240 488 c0 -45 3 -58 15 -58 10 0 15 10 15 28 0 37 22 67 44 59 11
-4 16 -19 16 -47 0 -29 4 -40 15 -40 19 0 21 92 3 108 -7 6 -34 10 -60 10
l-48 -1 0 -59z"/>
<path d="M407 490 c17 -39 32 -60 43 -60 11 0 26 21 43 60 24 56 24 60 7 60
-12 0 -22 -12 -30 -35 -6 -19 -15 -35 -19 -35 -4 0 -13 16 -20 35 -8 23 -19
35 -31 35 -17 0 -17 -4 7 -60z"/>
<path d="M552 534 c-46 -32 -15 -104 45 -104 28 0 63 33 63 60 0 27 -35 60
-63 60 -12 0 -33 -7 -45 -16z m63 -44 c0 -29 -38 -41 -48 -16 -10 26 4 47 27
44 15 -2 21 -10 21 -28z"/>
<path d="M686 513 c30 -72 34 -85 28 -94 -3 -5 -13 -8 -21 -7 -9 2 -18 -3 -20
-9 -3 -9 6 -13 25 -13 36 0 43 8 76 89 30 75 30 71 13 71 -7 0 -22 -17 -32
-37 l-18 -38 -16 37 c-10 23 -23 38 -34 38 -16 0 -16 -2 -1 -37z"/>
<path d="M837 532 c-47 -52 9 -122 77 -96 24 9 9 24 -24 24 -16 0 -32 5 -35
10 -4 6 12 10 39 10 52 0 60 16 26 50 -25 25 -62 26 -83 2z m73 -27 c0 -3 -14
-5 -31 -5 -27 0 -30 2 -19 15 9 11 17 12 31 4 10 -5 19 -12 19 -14z"/>
<path d="M970 489 c0 -46 3 -59 15 -59 10 0 15 10 15 30 0 17 9 39 20 50 28
28 25 36 -15 37 l-35 1 0 -59z"/>
<path d="M1150 469 c0 -64 3 -79 15 -79 9 0 15 9 15 23 0 20 4 23 28 19 36 -5
62 19 62 58 0 42 -23 59 -75 58 l-45 -1 0 -78z m85 21 c0 -18 -6 -26 -23 -28
-13 -2 -25 3 -28 12 -10 26 4 48 28 44 17 -2 23 -10 23 -28z"/>
<path d="M1312 543 c-21 -8 -3 -23 29 -23 16 0 29 -4 29 -10 0 -5 -9 -10 -19
-10 -34 0 -51 -12 -51 -35 0 -27 17 -34 73 -33 37 0 37 0 37 43 0 26 -6 50
-16 59 -15 15 -55 20 -82 9z m56 -79 c-9 -9 -21 -13 -27 -9 -16 10 -3 25 22
25 20 0 20 -1 5 -16z"/>
<path d="M1450 489 c0 -46 3 -59 15 -59 10 0 15 11 15 35 0 24 6 39 20 47 30
19 24 34 -15 35 l-35 1 0 -59z"/>
<path d="M1672 534 c-46 -32 -15 -104 45 -104 28 0 63 33 63 60 0 27 -35 60
-63 60 -12 0 -33 -7 -45 -16z m63 -44 c0 -18 -6 -26 -21 -28 -23 -3 -37 18
-27 44 10 25 48 13 48 -16z"/>
<path d="M1810 506 c0 -57 17 -74 75 -74 l45 1 0 59 c0 45 -3 58 -15 58 -9 0
-15 -9 -15 -22 0 -42 -12 -68 -30 -68 -21 0 -30 19 -30 61 0 19 -5 29 -15 29
-11 0 -15 -12 -15 -44z"/>
<path d="M2157 532 c-47 -52 9 -122 77 -96 28 11 17 24 -18 24 -19 0 -38 5
-41 10 -4 6 12 10 39 10 38 0 46 3 46 18 0 46 -72 69 -103 34z m68 -22 c4 -6
-7 -10 -25 -10 -18 0 -29 4 -25 10 3 6 15 10 25 10 10 0 22 -4 25 -10z"/>
<path d="M2470 489 c0 -46 3 -59 15 -59 10 0 15 11 15 35 0 24 6 39 20 47 30
19 24 34 -15 35 l-35 1 0 -59z"/>
<path d="M2583 543 c-25 -10 -12 -23 22 -23 19 0 35 -4 35 -10 0 -5 -11 -10
-24 -10 -24 0 -56 -23 -56 -39 0 -18 28 -30 68 -29 l42 0 0 47 c0 26 -5 52
-12 59 -12 12 -52 15 -75 5z m55 -75 c-7 -19 -38 -22 -38 -4 0 10 9 16 21 16
12 0 19 -5 17 -12z"/>
<path d="M2720 469 c0 -64 3 -79 15 -79 9 0 15 9 15 23 0 20 4 23 28 19 36 -5
62 19 62 57 0 39 -27 60 -78 59 l-42 0 0 -79z m85 21 c0 -18 -6 -26 -23 -28
-13 -2 -25 3 -28 12 -10 26 4 48 28 44 17 -2 23 -10 23 -28z"/>
<path d="M2880 490 c0 -47 3 -60 15 -60 12 0 15 13 15 60 0 47 -3 60 -15 60
-12 0 -15 -13 -15 -60z"/>
<path d="M3125 536 c-25 -18 -25 -74 1 -93 22 -16 76 -13 82 5 2 8 -7 12 -27
12 -16 0 -33 5 -36 10 -4 6 12 10 40 10 43 0 46 1 40 23 -14 44 -62 61 -100
33z m65 -27 c0 -5 -11 -9 -25 -9 -26 0 -34 15 -12 23 16 5 37 -3 37 -14z"/>
<path d="M3260 489 c0 -46 3 -59 15 -59 10 0 15 10 15 29 0 42 10 61 31 61 16
0 19 -8 19 -45 0 -38 3 -45 20 -45 17 0 20 7 20 40 0 28 5 43 16 47 21 8 34
-13 34 -54 0 -23 5 -33 15 -33 11 0 15 11 15 43 0 67 -7 71 -109 73 l-91 1 0
-58z"/>
<path d="M3510 530 c-41 -41 -7 -104 52 -98 42 4 50 28 9 28 -16 0 -33 5 -36
10 -4 6 10 10 34 10 37 0 41 2 41 25 0 44 -64 61 -100 25z m70 -21 c0 -5 -11
-9 -25 -9 -26 0 -34 15 -12 23 16 5 37 -3 37 -14z"/>
<path d="M3650 488 c0 -45 3 -58 15 -58 10 0 15 10 15 29 0 42 9 61 30 61 21
0 30 -19 30 -61 0 -19 5 -29 15 -29 11 0 15 12 15 44 0 57 -17 74 -75 74 l-45
-1 0 -59z"/>
</g>
</svg>
