<svg xmlns="http://www.w3.org/2000/svg" viewBox="0 0 500 500"><g id="freepik--background-complete--inject-32"><rect y="382.4" width="500" height="0.25" style="fill:#ebebeb"></rect><rect x="410.77" y="391.92" width="33.12" height="0.25" style="fill:#ebebeb"></rect><rect x="131.47" y="395.31" width="49.86" height="0.25" style="fill:#ebebeb"></rect><rect x="380.24" y="401.21" width="29.53" height="0.25" style="fill:#ebebeb"></rect><rect x="52.46" y="399.53" width="21.6" height="0.25" style="fill:#ebebeb"></rect><rect x="82.96" y="399.53" width="38.37" height="0.25" style="fill:#ebebeb"></rect><rect x="237.54" y="389.21" width="93.68" height="0.25" style="fill:#ebebeb"></rect><path d="M237,337.8H43.91a5.71,5.71,0,0,1-5.7-5.71V60.66A5.71,5.71,0,0,1,43.91,55H237a5.71,5.71,0,0,1,5.71,5.71V332.09A5.71,5.71,0,0,1,237,337.8ZM43.91,55.2a5.46,5.46,0,0,0-5.45,5.46V332.09a5.46,5.46,0,0,0,5.45,5.46H237a5.47,5.47,0,0,0,5.46-5.46V60.66A5.47,5.47,0,0,0,237,55.2Z" style="fill:#ebebeb"></path><path d="M453.31,337.8H260.21a5.72,5.72,0,0,1-5.71-5.71V60.66A5.72,5.72,0,0,1,260.21,55h193.1A5.71,5.71,0,0,1,459,60.66V332.09A5.71,5.71,0,0,1,453.31,337.8ZM260.21,55.2a5.47,5.47,0,0,0-5.46,5.46V332.09a5.47,5.47,0,0,0,5.46,5.46h193.1a5.47,5.47,0,0,0,5.46-5.46V60.66a5.47,5.47,0,0,0-5.46-5.46Z" style="fill:#ebebeb"></path><circle cx="330.26" cy="134.03" r="46.77" style="fill:#fafafa"></circle><path d="M425,120.38C417.36,113,407.4,107.7,400,107.7c-4.61,0-7.36,2.08-8.09,5.46a20.75,20.75,0,0,0-9.68-3.08c-5,0-6.84,3.56-5.05,8.6a27.26,27.26,0,0,0-8.42-1.92c-5.13-.23-8,1.82-8.29,5.15a10.62,10.62,0,0,0-3.61-1c-3-.13-3.74,1.94-1.76,4.62.12.17.25.33.38.5h81.35C435.66,123.44,428.63,120.52,425,120.38Z" style="fill:#f0f0f0"></path><path d="M180.41,118c-12.62-12.28-29.12-21-41.33-21-7.66,0-12.22,3.44-13.43,9-5.63-3.19-11.31-5.11-16.05-5.11-8.32,0-11.32,5.92-8.36,14.26A45.14,45.14,0,0,0,87.29,112c-8.51-.38-13.29,3-13.76,8.55a16.68,16.68,0,0,0-6-1.59c-4.9-.22-6.2,3.21-2.92,7.65.21.28.43.55.64.82H200.12C198.14,123,186.48,118.18,180.41,118Z" style="fill:#f0f0f0"></path><path d="M120.3,205.59a6,6,0,0,0-.72,0c-3.53-2.61-7.11-4.27-9.64-4.27-1.83,0-2.83.87-3,2.34-6.61-5.06-13.42-8.35-18.17-8.35-3.84,0-5.62,2.14-5.4,5.63-3.27-2-6.39-3.18-8.76-3.18-4.17,0-4.82,3.68-2.12,8.87h0a22.57,22.57,0,0,0-7.44-2c-4.3-.23-6.2,1.88-5.63,5.33a8.28,8.28,0,0,0-3.22-1c-2.35-.13-2.62,1.77-.71,4.31h79.31C131.11,209.4,124.8,206,120.3,205.59Z" style="fill:#f5f5f5"></path><path d="M308.11,76.42a2.36,2.36,0,0,0-.37,0,9.75,9.75,0,0,0-5-2.24,1.38,1.38,0,0,0-1.57,1.23c-3.44-2.65-7-4.36-9.48-4.36A2.51,2.51,0,0,0,288.83,74a9.62,9.62,0,0,0-4.57-1.66c-2.17,0-2.51,1.92-1.1,4.63h0a11.62,11.62,0,0,0-3.88-1c-2.25-.12-3.24,1-2.94,2.78a4.46,4.46,0,0,0-1.68-.52c-1.23-.07-1.37.93-.37,2.25h41.39A13.94,13.94,0,0,0,308.11,76.42Z" style="fill:#f5f5f5"></path><path d="M421.06,176.41l-.37,0c-1.85-1.36-3.71-2.23-5-2.23a1.37,1.37,0,0,0-1.57,1.22c-3.44-2.64-7-4.36-9.48-4.36a2.51,2.51,0,0,0-2.82,2.94,9.62,9.62,0,0,0-4.57-1.66c-2.17,0-2.51,1.92-1.11,4.63h0a11.86,11.86,0,0,0-3.88-1c-2.25-.12-3.24,1-2.94,2.78a4.64,4.64,0,0,0-1.68-.52c-1.23-.06-1.37.93-.37,2.26h41.39A14,14,0,0,0,421.06,176.41Z" style="fill:#fafafa"></path><path d="M129.51,152.33c5.16-1.29,8.37-4,12,.54-5.07-3.47-11.82,1.6-11.82,1.6s-7.52-3.84-11.92.45C120.59,149.88,124.21,151.94,129.51,152.33Z" style="fill:#f5f5f5"></path><path d="M105.77,167.09c3.27-.82,5.31-2.51,7.62.34-3.22-2.2-7.5,1-7.5,1s-4.78-2.44-7.57.29C100.11,165.53,102.4,166.84,105.77,167.09Z" style="fill:#f5f5f5"></path><path d="M399.13,67.67c5.15-1.29,8.36-4,12,.54-5.08-3.47-11.82,1.6-11.82,1.6s-7.52-3.84-11.92.45C390.21,65.22,393.83,67.28,399.13,67.67Z" style="fill:#f5f5f5"></path><path d="M375.39,82.43c3.27-.82,5.31-2.51,7.62.34-3.22-2.2-7.51,1-7.51,1s-4.77-2.44-7.57.29C369.72,80.87,372,82.18,375.39,82.43Z" style="fill:#f5f5f5"></path><path d="M161.21,178.34c4.3-1.08,7-3.3,10,.45-4.24-2.9-9.88,1.34-9.88,1.34s-6.28-3.21-10,.38C153.76,176.29,156.78,178,161.21,178.34Z" style="fill:#f5f5f5"></path><path d="M329.05,377.43a4.73,4.73,0,0,1,2.89,1.14,17.63,17.63,0,0,1,13.83-6.12,13.89,13.89,0,0,1,7.06,2.28h0c3-6,8.4-10.2,13.74-10.2a8.86,8.86,0,0,1,7.27,3.66c4.06-4,9-6.48,13.91-6.48,6.08,0,10.72,3.78,12.88,9.61a10.8,10.8,0,0,1,6.76-2.7,7.53,7.53,0,0,1,7,4.92,8.46,8.46,0,0,1,.87,0c5.22.5,9.12,4.37,9,8.81H322.77A6.42,6.42,0,0,1,329.05,377.43Z" style="fill:#fafafa"></path><polygon points="361.67 298.18 370.55 298.18 371.87 310.37 374.73 310.37 373.05 321.24 373.92 329.31 374.92 329.16 375.13 336.73 377.41 329.37 378.32 309.65 383.51 309.65 390.35 287.54 406.47 287.54 394.99 327.43 398.6 328.32 389.67 349.46 388.63 349.54 379.18 382.4 361 382.4 365.86 366.69 368.7 354.29 364.62 332.37 364.05 332.32 361.48 320.66 363.56 320.18 361.67 298.18" style="fill:#f0f0f0"></polygon><path d="M450,252.48c3.73-7,1.36-12-5.59-14.2-2.69-8.59-21.25-18.18-45.57-22.83-27.6-5.26-46.88-.35-55.72,6.9a33.26,33.26,0,0,0-17.26,2.47c-9.54,4-15.46,10.69-15.49,16.57-6.83,2.34-9,7.44-5,14.51,2,3.6,6,7.15,12,9.73a12.52,12.52,0,0,0,1.95,7.15,17.77,17.77,0,0,0,3.14,4c-3.12,2.76-3.53,6.88-.6,12.07,2.75,4.85,9.09,9.64,19.07,12,3.8,5.82,16.82,10.11,32.31,10.11,16.23,0,29.75-4.71,32.78-11,2,.14,4,.22,6,.22,18.46,0,29.54-6.74,33.43-13.61,2.2-3.89,2.51-7.17,1.23-9.74,5.34-2.52,9-5.84,10.86-9.2C462,259.8,458.79,254.37,450,252.48Z" style="fill:#f5f5f5"></path><path d="M177.53,376.84a5.24,5.24,0,0,0-3.24,1.27,19.76,19.76,0,0,0-15.49-6.86,15.57,15.57,0,0,0-7.91,2.56h0c-3.37-6.69-9.42-11.43-15.4-11.43a9.92,9.92,0,0,0-8.14,4.09c-4.55-4.5-10.09-7.26-15.59-7.26-6.81,0-12,4.24-14.44,10.77a12.09,12.09,0,0,0-7.57-3,8.44,8.44,0,0,0-7.89,5.51c-.32,0-.65,0-1,0-5.84.56-10.21,4.91-10.1,9.88H184.56A7.17,7.17,0,0,0,177.53,376.84Z" style="fill:#fafafa"></path><polygon points="166.53 308.39 158.72 308.39 152.49 319.11 149.97 319.11 146.93 328.66 142.81 335.74 141.99 335.61 138.65 342.27 139.71 335.8 147.12 318.48 142.56 318.48 145.76 299.04 131.59 299.04 125.06 334.1 121.53 334.87 120.56 353.46 121.45 353.53 116.08 382.4 132.05 382.4 134.32 368.59 136.99 357.7 149.7 338.43 150.22 338.39 157.34 328.15 155.7 327.72 166.53 308.39" style="fill:#f0f0f0"></polygon><path d="M74,274c-3.77-7-1.37-12.1,5.66-14.37,2.72-8.7,21.5-18.4,46.11-23.09,27.92-5.34,47.44-.36,56.38,7A33.6,33.6,0,0,1,199.6,246c9.67,4.06,15.65,10.81,15.68,16.77,6.91,2.37,9.13,7.53,5.09,14.68-2.06,3.64-6.11,7.24-12.17,9.84a12.76,12.76,0,0,1-2,7.24,18.52,18.52,0,0,1-3.18,4c3.15,2.79,3.57,7,.6,12.2-2.78,4.92-9.19,9.76-19.29,12.18-3.85,5.88-17,10.22-32.68,10.22-16.43,0-30.11-4.76-33.18-11.08-2,.14-4,.22-6.11.22-18.68,0-29.89-6.81-33.82-13.77-2.22-3.93-2.54-7.26-1.24-9.85-5.41-2.56-9.07-5.92-11-9.31C61.83,281.43,65.12,275.93,74,274Z" style="fill:#f5f5f5"></path></g><g id="freepik--Shadow--inject-32"><ellipse id="freepik--path--inject-32" cx="250" cy="416.24" rx="193.89" ry="11.32" style="fill:#f5f5f5"></ellipse></g><g id="freepik--Character--inject-32"><path d="M301.71,177.94l2.46-6.26a4,4,0,0,0-.92-4.31h0a6.42,6.42,0,0,0-2.45-1.51l-7.21-2.43-3.84,4c-1.25,4.28,6.22,7.85,6.22,7.85Z" style="fill:#7f3e3b"></path><path d="M292.49,384.83H181.22c-2.08,0-3.78,2.18-3.78,4.84s1.7,4.83,3.78,4.83H292.49c2.08,0,3.78-2.18,3.78-4.83S294.57,384.83,292.49,384.83Z" style="fill:#263238"></path><path d="M291.38,173.75h0a4,4,0,0,0-2.92,4.83L331,351a4,4,0,0,0,4.84,2.92h0a4,4,0,0,0,2.92-4.83l-42.51-172.4A4,4,0,0,0,291.38,173.75Z" style="fill:#263238"></path><path d="M329.77,354.88a41.11,41.11,0,0,0-27.15,27.69,9.38,9.38,0,0,0,9,12.05h30.23V360.19a6.66,6.66,0,0,0-8.62-6.37Z" style="fill:#407BFF"></path><path d="M309.77,381H181.17c-2.33,0-4.24,2.44-4.24,5.42s1.91,5.42,4.24,5.42h128.6c2.33,0,4.24-2.44,4.24-5.42S312.1,381,309.77,381Z" style="fill:#407BFF"></path><path d="M326.77,317.24h0a6.37,6.37,0,0,0-4.65,7.69l9.13,37a6.38,6.38,0,0,0,7.69,4.65h0a6.38,6.38,0,0,0,4.65-7.7l-9.13-37A6.37,6.37,0,0,0,326.77,317.24Z" style="fill:#407BFF"></path><path d="M333.49,336h0a2.15,2.15,0,0,0-1.57,2.6L335,351.1a2.16,2.16,0,0,0,2.6,1.58h0a2.17,2.17,0,0,0,1.57-2.61l-3.09-12.52A2.15,2.15,0,0,0,333.49,336Z" style="fill:#263238"></path><path d="M333,365.29a30,30,0,0,0-21.1,29.14,6.56,6.56,0,0,0,8.5,6.12l42.91-13.29a6.54,6.54,0,0,0,3.56-9.84A30,30,0,0,0,333,365.29Z" style="fill:#407BFF"></path><path d="M333,365.29a30,30,0,0,0-21.1,29.14,6.56,6.56,0,0,0,8.5,6.12l42.91-13.29a6.54,6.54,0,0,0,3.56-9.84A30,30,0,0,0,333,365.29Z" style="fill:#fff;opacity:0.6000000000000001"></path><circle cx="341.85" cy="393.91" r="22.33" transform="translate(-178.41 357.09) rotate(-45)" style="fill:#263238"></circle><circle cx="341.85" cy="393.91" r="17.01" transform="translate(-178.41 357.09) rotate(-45)" style="fill:#fff;opacity:0.30000000000000004"></circle><circle cx="341.85" cy="393.91" r="9.26" transform="translate(-101.73 668.24) rotate(-80.78)" style="fill:#263238;opacity:0.30000000000000004"></circle><path d="M178.6,393.91H157.65a6.53,6.53,0,0,1-2.85-.65l-18.89-9.09a6.56,6.56,0,0,1-2.06-10.27,29.94,29.94,0,0,1,51,11.51A6.58,6.58,0,0,1,178.6,393.91Z" style="fill:#407BFF"></path><circle cx="156.15" cy="393.91" r="22.33" transform="translate(-232.8 225.79) rotate(-45)" style="fill:#263238"></circle><circle cx="156.15" cy="393.91" r="17.01" transform="translate(-232.8 225.79) rotate(-45)" style="fill:#fff;opacity:0.30000000000000004"></circle><circle cx="156.15" cy="393.91" r="9.26" transform="translate(-257.68 484.94) rotate(-80.78)" style="fill:#263238;opacity:0.30000000000000004"></circle><path d="M190.73,400.56H163.14a4.06,4.06,0,0,1-4-4h0a4.06,4.06,0,0,1,4-4h27.59a4.06,4.06,0,0,1,4,4h0A4.05,4.05,0,0,1,190.73,400.56Z" style="fill:#263238"></path><path d="M197.84,389.67H156a4.25,4.25,0,0,0-4.24,4.24h0a4.26,4.26,0,0,0,4.24,4.24h41.81a4.26,4.26,0,0,0,4.24-4.24h0A4.25,4.25,0,0,0,197.84,389.67Z" style="fill:#407BFF"></path><path d="M197.84,389.67H156a4.25,4.25,0,0,0-4.24,4.24h0a4.26,4.26,0,0,0,4.24,4.24h41.81a4.26,4.26,0,0,0,4.24-4.24h0A4.25,4.25,0,0,0,197.84,389.67Z" style="fill:#fff;opacity:0.6000000000000001"></path><path d="M167.48,395.34H159a1.43,1.43,0,0,1-1.43-1.43h0a1.44,1.44,0,0,1,1.43-1.44h8.51a1.45,1.45,0,0,1,1.44,1.44h0A1.44,1.44,0,0,1,167.48,395.34Z" style="fill:#fff"></path><path d="M291.5,388.19H261a1.78,1.78,0,0,1-1.77-1.77h0a1.77,1.77,0,0,1,1.77-1.77h30.5a1.78,1.78,0,0,1,1.78,1.77h0A1.78,1.78,0,0,1,291.5,388.19Z" style="fill:#fff;opacity:0.30000000000000004"></path><path d="M295.91,175.75a5.66,5.66,0,1,1-5.66-5.66A5.66,5.66,0,0,1,295.91,175.75Z" style="fill:#263238"></path><path d="M299.21,181.26l-7.16-3a3.12,3.12,0,0,1-1.69-4.07h0a3.12,3.12,0,0,1,4.07-1.69l7.16,3a3.13,3.13,0,0,1,1.69,4.07h0A3.14,3.14,0,0,1,299.21,181.26Z" style="fill:#263238"></path><path d="M329.72,341.58a12.62,12.62,0,0,1-4.52-.86,11.68,11.68,0,0,1-6.83-6.53c-1.23-3.19-1-6.67-.77-10l.09-1.42c.57-9.69-1.06-17.77-4.86-24a57.94,57.94,0,0,0-4.62-6.25c-.86-1.06-1.75-2.16-2.59-3.28a56.54,56.54,0,0,1-11-28.74c-.78-9.09.7-18.26,2.13-27.12.46-2.85.94-5.8,1.33-8.69,1.29-9.54,2.29-23.52-3.95-34.75l.95-.53c6.4,11.52,5.39,25.73,4.08,35.42-.39,2.91-.87,5.87-1.33,8.72-1.42,8.8-2.89,17.9-2.12,26.85a55.38,55.38,0,0,0,10.74,28.19c.83,1.1,1.71,2.19,2.57,3.24a59.82,59.82,0,0,1,4.7,6.37c3.91,6.44,5.6,14.73,5,24.64l-.09,1.43c-.22,3.24-.45,6.59.7,9.56a11.15,11.15,0,0,0,14.75,5.67l.49,1A10.81,10.81,0,0,1,329.72,341.58Z" style="fill:#263238"></path><path d="M228.79,91.1C208.38,98.5,188,88.41,169,89.62S134,103,130.21,108c8.33,1.33,13.17,13.17,13.17,13.17s17.69-17,36.12-19c29.54-3.26,37.84,3.42,52.7-3.26Z" style="fill:#263238"></path><polygon points="271.85 351.31 277.72 374.25 288.71 371.55 282.84 348.61 271.85 351.31" style="fill:#7f3e3b"></polygon><path d="M288.93,366.87l-12.41,2.69a.79.79,0,0,0-.63.86l.86,9.11a1.8,1.8,0,0,0,2,1.43c3.55,0,5.08-1.5,10-2.58,5.76-1.26,9.47.61,15.58-2.63,3.7-2,2.37-6,.61-5.56-5.59,1.52-10.38-1.23-13.36-3.08A3.58,3.58,0,0,0,288.93,366.87Z" style="fill:#263238"></path><polygon points="271.85 351.31 274.87 363.14 285.87 360.44 282.84 348.61 271.85 351.31" style="opacity:0.2"></polygon><path d="M252.26,262.91c-13.09-38.52-23.47-84-23.47-84l37.36-2.36s5.5,59,8.37,86.18c3,28.27,12.26,92.1,12.26,92.1l-16.85,3.41S254.12,298.16,252.26,262.91Z" style="fill:#263238"></path><path d="M246,200.36,237,211.57c2.31,8.65,5,18.37,8,28.31A195.16,195.16,0,0,0,246,200.36Z" style="opacity:0.2"></path><path d="M286.53,357.23l-15.45,3.39a1.27,1.27,0,0,1-1.48-.84l-1.71-5a1.27,1.27,0,0,1,.92-1.66l16.77-3.95a1.28,1.28,0,0,1,1.57,1.16l.39,5.54A1.28,1.28,0,0,1,286.53,357.23Z" style="fill:#263238"></path><path d="M286.53,357.23l-15.45,3.39a1.27,1.27,0,0,1-1.48-.84l-1.71-5a1.27,1.27,0,0,1,.92-1.66l16.77-3.95a1.28,1.28,0,0,1,1.57,1.16l.39,5.54A1.28,1.28,0,0,1,286.53,357.23Z" style="fill:#fff;opacity:0.1"></path><polygon points="210.24 350.51 209.55 374.19 220.88 374.03 221.57 350.35 210.24 350.51" style="fill:#7f3e3b"></polygon><path d="M221.15,369.18l-12.05.17a.78.78,0,0,0-.78.71l-1,9.1A1.66,1.66,0,0,0,209,381c4-.13,5.27-.46,10.31-.54,5.9-.09,7.18.65,14.1.54,4.19-.07,4.86-4.3,3.06-4.68a27.59,27.59,0,0,1-12.8-6.35A3.57,3.57,0,0,0,221.15,369.18Z" style="fill:#263238"></path><polygon points="210.24 350.52 209.88 362.72 221.21 362.56 221.57 350.36 210.24 350.52" style="opacity:0.2"></polygon><path d="M215,264.09c3.19-40.53-1.48-64.35,3.23-84.48l34-2.1S243.67,239,237.84,266s-14.05,90.42-14.05,90.42l-16.71.21S207,295.71,215,264.09Z" style="fill:#263238"></path><path d="M223.74,359.4l-15.8.25a1.28,1.28,0,0,1-1.3-1.2l-.35-5.22a1.28,1.28,0,0,1,1.24-1.36l17.21-.54a1.29,1.29,0,0,1,1.3,1.52L225,358.36A1.28,1.28,0,0,1,223.74,359.4Z" style="fill:#263238"></path><path d="M223.74,359.4l-15.8.25a1.28,1.28,0,0,1-1.3-1.2l-.35-5.22a1.28,1.28,0,0,1,1.24-1.36l17.21-.54a1.29,1.29,0,0,1,1.3,1.52L225,358.36A1.28,1.28,0,0,1,223.74,359.4Z" style="fill:#fff;opacity:0.1"></path><path d="M264.07,109.54c1.22,2.73,2.32,5.49,3.47,8.24s2.22,5.54,3.27,8.33,2.11,5.59,3.11,8.41,2,5.65,2.94,8.57l-.48-1a44.53,44.53,0,0,0,3.9,6c1.52,2,3.15,4,4.87,6s3.48,3.91,5.29,5.77c.91.93,1.82,1.86,2.73,2.7.45.43.9.84,1.3,1.19l.5.43s.08.08-.05.07l-.14,0-.3,0h-.24a2.52,2.52,0,0,0-.42,0,3.35,3.35,0,0,0-.54.15,2.67,2.67,0,0,0-.71.37,3.37,3.37,0,1,1,3.77,5.58,3.6,3.6,0,0,1-.83.42,3.41,3.41,0,0,1-.67.18,4,4,0,0,1-.54.05h-.36a3,3,0,0,1-.55-.06l-.39-.08a10.07,10.07,0,0,1-1-.3c-.52-.19-.92-.37-1.3-.55-.76-.36-1.44-.72-2.1-1.09-1.3-.74-2.53-1.51-3.72-2.32-2.39-1.61-4.66-3.34-6.86-5.16a81.82,81.82,0,0,1-6.37-5.89,47.51,47.51,0,0,1-5.83-7.14,2.32,2.32,0,0,1-.22-.41l-.26-.6-7-16.18c-1.18-2.71-2.32-5.44-3.46-8.17s-2.29-5.47-3.35-8.22h0a6.81,6.81,0,0,1,12.56-5.23Z" style="fill:#803e3c"></path><path d="M255.42,97.68c12.61,4.16,18.21,26.2,18.21,26.2-5.12,5.78-10.48,10-16.28,11.41,0,0-4.46-8.32-9-18.59C243.45,105.51,245.44,94.39,255.42,97.68Z" style="fill:#407BFF"></path><path d="M266.93,113.24A20.2,20.2,0,0,0,246.8,95.49a140,140,0,0,0-28.24,3.11A11.08,11.08,0,0,0,210.13,112c8.58,35.66,1.5,55.51,3.63,70.77,18.06,3.37,39.36-4.41,54.32-1.72C269.68,154.94,268.71,128.51,266.93,113.24Z" style="fill:#407BFF"></path><path d="M248.71,149.81c-7.51,0-14.11-7.88-14.72-17.56-.34-5.49,1.27-10.57,4.43-13.93a11.05,11.05,0,0,1,8.16-3.69c7.51,0,14.11,7.87,14.71,17.55h0c.35,5.49-1.27,10.57-4.43,13.94A11,11,0,0,1,248.71,149.81Zm-2.13-34a9.87,9.87,0,0,0-7.29,3.31c-2.94,3.13-4.44,7.88-4.11,13.05.57,9.06,6.64,16.44,13.53,16.44a9.9,9.9,0,0,0,7.29-3.31c2.94-3.13,4.44-7.89,4.11-13.06h0C259.54,123.19,253.47,115.82,246.58,115.82Z" style="fill:#fff"></path><polygon points="250.27 134.38 256.87 120.48 252.4 116.93 248.17 115.35 244.73 130.13 247.16 131.99 244.12 148.16 253.07 136.54 250.27 134.38" style="fill:#fff"></polygon><path d="M227,74.89c1.49,5.74,3.24,15.82.5,21.33a2.61,2.61,0,0,0,.68,3.26c3.52,2.71,8,5.24,14.61,4.83,6.9-.42,6.39-4.55,4.64-7.31a2.57,2.57,0,0,0-1.63-1.15c-6.52-1.34-6.6-6.53-5.67-11.52Z" style="fill:#7f3e3b"></path><path d="M228.84,87.45c-4.69-1.83-4.43.77-4.33,4.43S220,96,222.88,99.29s13.07,7.24,20.18,6c12.32-2.19,5.9-6.93,4.85-9.51s1.85-7.49-1.74-8.18S235.74,90.14,228.84,87.45Z" style="fill:#263238"></path><path d="M245.31,95.81c-5.89,2.61-14.52,1.71-19.47-1.83a39,39,0,0,0,19.47,1.83" style="opacity:0.2"></path><path d="M232.33,78.74l7.77,5.59a21.15,21.15,0,0,0-.41,3.67c-2.82-.13-6.83-2.82-7.3-5.71A9.9,9.9,0,0,1,232.33,78.74Z" style="opacity:0.2"></path><path d="M245.63,66.28c4.2-1.49,4.83-7.57,1-10.9C239,53.83,241.43,63.07,245.63,66.28Z" style="fill:#263238"></path><path d="M224.56,65.14c1.18,8.77,1.45,14,6.06,18,6.93,6.11,17,.92,18.39-8.12,1.21-8.13-.93-21.11-9.46-23.72S223.37,56.37,224.56,65.14Z" style="fill:#7f3e3b"></path><path d="M225.6,70.56c4.66-.62,6.07-6.42,3.69-10.62,2-.11,9.14-.22,8.81-3.44,5.16,2.22,11.83,3.64,11.5-.5-.28-3.42-2.95-6.22-8.61-8.56s-21.61-2.38-20.84,9C212,61.67,218.32,71.33,225.6,70.56Z" style="fill:#263238"></path><path d="M221.62,72.31a8.31,8.31,0,0,0,4.48,4.2c2.5.92,3.71-1.55,3-4.26-.66-2.44-2.76-5.85-5.26-5.58S220.45,69.86,221.62,72.31Z" style="fill:#7f3e3b"></path><path d="M248.47,58.66l-15.09,1.83a7.22,7.22,0,0,0-6.3,8l.87,7.13A3.83,3.83,0,0,1,221.69,79a19.21,19.21,0,1,1,28.85-24.49A2.76,2.76,0,0,1,248.47,58.66Z" style="fill:#407BFF"></path><path d="M224.12,74.11c.59,1.44.33,2.9-.57,3.26s-2.11-.5-2.69-1.94-.32-2.9.58-3.27S223.54,72.67,224.12,74.11Z" style="fill:#fff;opacity:0.2"></path><path d="M236.81,65.73c.06.72.5,1.27,1,1.22s.8-.66.74-1.38-.5-1.27-1-1.23S236.75,65,236.81,65.73Z" style="fill:#263238"></path><path d="M245.28,65.37c.07.72.5,1.27,1,1.22s.8-.67.74-1.39-.5-1.26-1-1.22S245.22,64.65,245.28,65.37Z" style="fill:#263238"></path><path d="M242.67,65.38a25.68,25.68,0,0,0,4,5.83c-1.17,1.32-3.39,1-3.39,1Z" style="fill:#630f0f"></path><path d="M240.28,75.71a6,6,0,0,1-4.46-1.53.22.22,0,0,1,0-.31.21.21,0,0,1,.3,0,5.72,5.72,0,0,0,5,1.29.2.2,0,0,1,.25.16.21.21,0,0,1-.17.25A6.29,6.29,0,0,1,240.28,75.71Z" style="fill:#263238"></path><path d="M233.68,63.42a.39.39,0,0,1-.2-.08.44.44,0,0,1-.07-.6A4.3,4.3,0,0,1,236.9,61a.42.42,0,0,1,.39.46.43.43,0,0,1-.46.39h0a3.42,3.42,0,0,0-2.75,1.4A.42.42,0,0,1,233.68,63.42Z" style="fill:#263238"></path><path d="M249.93,62.48a.39.39,0,0,1-.37-.15,3.39,3.39,0,0,0-2.78-1.28.43.43,0,0,1-.47-.37.43.43,0,0,1,.37-.47,4.15,4.15,0,0,1,3.53,1.58.43.43,0,0,1-.05.6A.5.5,0,0,1,249.93,62.48Z" style="fill:#263238"></path><path d="M219.5,117.77l-1.77,3.44c-.6,1.18-1.18,2.37-1.75,3.56-1.13,2.39-2.27,4.78-3.32,7.19a107,107,0,0,0-5.34,14.45l-.46,1.78c0,.13,0,0,0,0v-.07s0,0,0,0a.61.61,0,0,0,0,.26,11.46,11.46,0,0,0,.52,2.68,56.89,56.89,0,0,0,2.77,6.91c2.19,4.74,4.82,9.56,7.33,14.33l.05.1a3.4,3.4,0,0,1-5.42,4,96,96,0,0,1-11-13.23,51.65,51.65,0,0,1-4.55-7.92,21.07,21.07,0,0,1-1.69-5.27,13.51,13.51,0,0,1-.18-1.81,9.63,9.63,0,0,1,0-1.06c0-.17,0-.38,0-.58l.07-.5.38-2.27a72.73,72.73,0,0,1,2.14-8.7c.83-2.83,1.84-5.56,2.88-8.25s2.2-5.33,3.45-7.92c.61-1.3,1.25-2.58,1.91-3.86s1.32-2.51,2.1-3.88a6.8,6.8,0,0,1,12,6.48Z" style="fill:#803e3c"></path><path d="M217.42,98.91c-14.71,3.71-20.8,24.41-20.8,24.41s4.19.07,9.67,4.43c6.09,4.83,11.34,4.47,11.34,4.47s3.8-2.41,5.16-13.55C223.44,113.35,220.4,98.77,217.42,98.91Z" style="fill:#407BFF"></path><path d="M215.16,170.23l8.5,3.17-6.51,8.73s-7.35-3.81-6-8Z" style="fill:#7f3e3b"></path><path d="M227.65,182l-2.8,2.68a3.17,3.17,0,0,1-4.07.24l-3.63-2.74,6.51-8.73,4,4.06A3.14,3.14,0,0,1,227.65,182Z" style="fill:#7f3e3b"></path><path d="M246.88,54.35c-.86,1.45-3.92,1.23-6.84-.5s-4.58-4.3-3.72-5.75,3.92-1.23,6.84.49S247.74,52.9,246.88,54.35Z" style="fill:#fff;opacity:0.2"></path></g></svg>